<svg width="16" height="19" viewBox="0 0 16 19" fill="none" xmlns="http://www.w3.org/2000/svg">
<path d="M14.9167 10.75V7.83333C14.9167 5.8875 14.9167 4.915 14.5233 4.17833C14.2126 3.59695 13.7364 3.12077 13.155 2.81C12.4183 2.41667 11.4458 2.41667 9.5 2.41667C9.5 1.97464 9.32441 1.55072 9.01184 1.23816C8.69928 0.925595 8.27536 0.75 7.83333 0.75C7.39131 0.75 6.96738 0.925595 6.65482 1.23816C6.34226 1.55072 6.16667 1.97464 6.16667 2.41667C4.22083 2.41667 3.24833 2.41667 2.51167 2.81C1.93028 3.12077 1.4541 3.59695 1.14333 4.17833C0.75 4.915 0.75 5.8875 0.75 7.83333V10.75C0.75 13.8925 0.75 15.4642 1.72667 16.44C2.70333 17.4158 4.27417 17.4167 7.41667 17.4167H8.25C11.3925 17.4167 12.9642 17.4167 13.94 16.44C14.9158 15.4633 14.9167 13.8925 14.9167 10.75Z" stroke="currentColor" stroke-width="1.5" stroke-linecap="square" stroke-linejoin="round"/>
<path d="M3.25 7.41675H6.58333" stroke="currentColor" stroke-width="1.5" stroke-linecap="round"/>
<path d="M9.08325 8.24992C9.08325 8.24992 9.49992 8.24992 9.91659 9.08325C9.91659 9.08325 11.2399 6.99992 12.4166 6.58325" stroke="currentColor" stroke-width="1.5" stroke-linecap="round" stroke-linejoin="round"/>
<path d="M3.25 12.4167H6.58333" stroke="currentColor" stroke-width="1.5" stroke-linecap="round"/>
<path d="M9.08325 13.2499C9.08325 13.2499 9.49992 13.2499 9.91659 14.0833C9.91659 14.0833 11.2399 11.9999 12.4166 11.5833" stroke="currentColor" stroke-width="1.5" stroke-linecap="round" stroke-linejoin="round"/>
</svg>
