<svg width="15" height="16" viewBox="0 0 15 16" fill="none" xmlns="http://www.w3.org/2000/svg">
<path d="M10.1875 8.78027L10.1797 8.76953L10.1748 8.76367C11.3897 7.88617 12.1797 6.45637 12.1797 4.84375C12.1797 2.17228 10.0152 0.0078125 7.34375 0.0078125C4.67231 0.0078389 2.50781 2.1723 2.50781 4.84375C2.50781 6.45637 3.29784 7.88617 4.5127 8.76562L4.5 8.75684L4.50391 8.76465L4.51172 8.77832C4.50749 8.78043 4.50281 8.78178 4.49902 8.7832C4.4952 8.78464 4.49165 8.78643 4.48828 8.78809H4.4873C3.61324 9.15683 2.82936 9.68626 2.15625 10.3613C1.48647 11.0297 0.951748 11.821 0.583008 12.6924C0.220776 13.5454 0.0257445 14.4601 0.0078125 15.3867C0.00731727 15.4065 0.0113171 15.4269 0.0185547 15.4453C0.0257622 15.4635 0.03619 15.4801 0.0498047 15.4941C0.0636336 15.5083 0.0803842 15.5197 0.0986328 15.5273C0.116874 15.535 0.136456 15.5391 0.15625 15.5391H1.32812C1.40971 15.5391 1.47461 15.4742 1.47656 15.3945C1.51568 13.8847 2.12165 12.4702 3.19336 11.3984C4.30223 10.2896 5.77529 9.6797 7.34375 9.67969C8.91222 9.67969 10.3853 10.2896 11.4941 11.3984C12.5659 12.4702 13.1718 13.8847 13.2109 15.3945C13.2129 15.4761 13.2777 15.539 13.3594 15.5391H14.5312C14.551 15.5391 14.5706 15.535 14.5889 15.5273C14.6071 15.5197 14.6239 15.5083 14.6377 15.4941C14.6514 15.4801 14.6627 15.4636 14.6699 15.4453C14.6772 15.4269 14.6802 15.4065 14.6797 15.3867C14.6602 14.4542 14.4674 13.5469 14.1045 12.6904C13.7364 11.8187 13.2016 11.0272 12.5312 10.3594C11.8629 9.6896 11.0716 9.15487 10.2002 8.78613H10.1992C10.1959 8.78449 10.1923 8.78267 10.1885 8.78125L10.1875 8.78027ZM10.1875 8.78027C10.1841 8.77898 10.1795 8.77825 10.1758 8.77637L10.1895 8.7832L10.1875 8.78027ZM7.34375 1.47656C6.44521 1.47658 5.59911 1.82667 4.96289 2.46289C4.32668 3.09912 3.97656 3.9452 3.97656 4.84375C3.97656 5.7423 4.32668 6.58838 4.96289 7.22461C5.59911 7.86083 6.44521 8.21092 7.34375 8.21094C8.2423 8.21094 9.08838 7.86082 9.72461 7.22461C10.3608 6.58838 10.7109 5.74231 10.7109 4.84375C10.7109 3.94519 10.3608 3.09912 9.72461 2.46289C9.08838 1.82668 8.2423 1.47656 7.34375 1.47656Z" fill="currentColor" fill-rule="evenodd" clip-rule="evenodd"/>
</svg>