<svg width="75" height="32" viewBox="0 0 75 32" fill="none" xmlns="http://www.w3.org/2000/svg">
<path d="M15.5391 7.87891V11.1133C13.9609 9.79297 12.3281 9.13281 10.6406 9.13281C8.78125 9.13281 7.21484 9.80078 5.94141 11.1367C4.66016 12.4648 4.01953 14.0898 4.01953 16.0117C4.01953 17.9102 4.66016 19.5117 5.94141 20.8164C7.22266 22.1211 8.79297 22.7734 10.6523 22.7734C11.6133 22.7734 12.4297 22.6172 13.1016 22.3047C13.4766 22.1484 13.8633 21.9375 14.2617 21.6719C14.668 21.4062 15.0938 21.0859 15.5391 20.7109V24.0039C13.9766 24.8867 12.3359 25.3281 10.6172 25.3281C8.03125 25.3281 5.82422 24.4258 3.99609 22.6211C2.17578 20.8008 1.26562 18.6055 1.26562 16.0352C1.26562 13.7305 2.02734 11.6758 3.55078 9.87109C5.42578 7.66016 7.85156 6.55469 10.8281 6.55469C12.4531 6.55469 14.0234 6.99609 15.5391 7.87891ZM17.9766 15.8711C17.9766 13.3242 18.9102 11.1367 20.7773 9.30859C22.6367 7.48047 24.8711 6.56641 27.4805 6.56641C30.0586 6.56641 32.2695 7.48828 34.1133 9.33203C35.9648 11.1758 36.8906 13.3906 36.8906 15.9766C36.8906 18.5781 35.9609 20.7852 34.1016 22.5977C32.2344 24.418 29.9805 25.3281 27.3398 25.3281C25.0039 25.3281 22.9062 24.5195 21.0469 22.9023C19 21.1133 17.9766 18.7695 17.9766 15.8711ZM20.7305 15.9062C20.7305 17.9062 21.4023 19.5508 22.7461 20.8398C24.082 22.1289 25.625 22.7734 27.375 22.7734C29.2734 22.7734 30.875 22.1172 32.1797 20.8047C33.4844 19.4766 34.1367 17.8594 34.1367 15.9531C34.1367 14.0234 33.4922 12.4062 32.2031 11.1016C30.9219 9.78906 29.3359 9.13281 27.4453 9.13281C25.5625 9.13281 23.9727 9.78906 22.6758 11.1016C21.3789 12.3984 20.7305 14 20.7305 15.9062ZM43.4531 22.4336H52.1367V25H38.9648L47.8477 9.47266H40.418V6.90625H52.3359L43.4531 22.4336ZM55.2305 23.6875C55.2305 23.25 55.3906 22.8711 55.7109 22.5508C56.0312 22.2305 56.4141 22.0703 56.8594 22.0703C57.3047 22.0703 57.6875 22.2305 58.0078 22.5508C58.3281 22.8711 58.4883 23.2539 58.4883 23.6992C58.4883 24.1523 58.3281 24.5391 58.0078 24.8594C57.6953 25.1719 57.3125 25.3281 56.8594 25.3281C56.3984 25.3281 56.0117 25.1719 55.6992 24.8594C55.3867 24.5469 55.2305 24.1562 55.2305 23.6875ZM55.2305 14.875C55.2305 14.4453 55.3906 14.0703 55.7109 13.75C56.0312 13.4297 56.4141 13.2695 56.8594 13.2695C57.3047 13.2695 57.6875 13.4297 58.0078 13.75C58.3281 14.0703 58.4883 14.4531 58.4883 14.8984C58.4883 15.3516 58.3281 15.7383 58.0078 16.0586C57.6953 16.3711 57.3125 16.5273 56.8594 16.5273C56.4062 16.5273 56.0195 16.3672 55.6992 16.0469C55.3867 15.7344 55.2305 15.3438 55.2305 14.875ZM72.7148 9.47266H65.4609V13.8203H72.5039V16.3867H65.4609V22.4336H72.7148V25H62.7305V6.90625H72.7148V9.47266Z" fill="black"/>
</svg>
